<svg width="48" height="48" viewBox="0 0 48 48" fill="none" xmlns="http://www.w3.org/2000/svg">
<circle cx="24" cy="24" r="24" fill="white"/>
<path d="M14.2634 15.974C14.2129 15.9917 14.1624 16.0093 14.1119 16.027L14.2818 15.9651C14.2726 15.9696 14.268 15.9696 14.2634 15.974Z" fill="black"/>
<path d="M13.5379 16.2257C13.4506 16.2566 13.4001 16.2787 13.3864 16.2831L13.5471 16.2257C13.5471 16.2257 13.5425 16.2257 13.5379 16.2257ZM21.9918 24.0704C22.001 24.0925 22.0056 24.1146 22.0101 24.1367C22.0101 24.1411 22.0147 24.1455 22.0147 24.1455C22.0056 24.1234 22.001 24.0969 21.9918 24.0704ZM19.8152 22.3875C20.1091 22.4449 20.3892 22.5465 20.6555 22.679C20.3938 22.5465 20.1136 22.4449 19.8152 22.3875ZM18.2217 22.4935C18.3365 22.4626 18.4559 22.4405 18.5707 22.4096C18.6993 22.3787 18.8325 22.3522 18.9656 22.3389C18.7039 22.361 18.4559 22.414 18.2217 22.4935Z" fill="black"/>
<path d="M11.8986 15.8503C11.8572 15.9077 11.8205 15.9696 11.7838 16.0314C11.7975 15.9961 11.8159 15.9607 11.8297 15.9298C11.8526 15.8989 11.8756 15.8724 11.8986 15.8503Z" fill="black"/>
<path d="M14.0935 16.0314C14.066 16.0402 14.043 16.0535 14.0155 16.0623H14.0109C13.9466 16.0888 13.8823 16.1153 13.818 16.1374C13.7951 16.1462 13.7675 16.1551 13.7445 16.1683C13.7216 16.1771 13.694 16.186 13.6711 16.1948C13.6573 16.1992 13.6481 16.2036 13.6343 16.2081C13.6297 16.2081 13.6206 16.2125 13.616 16.2125C13.6068 16.2125 13.5976 16.2169 13.5838 16.2169C13.5746 16.2169 13.5609 16.2169 13.5517 16.2213C13.5471 16.2213 13.5425 16.2213 13.5379 16.2213C13.6252 16.1904 13.7491 16.1462 13.9053 16.0976H13.9099L14.0935 16.0314Z" fill="black"/>
<path d="M40.9935 29.5741C40.6491 26.5573 39.9328 22.3125 38.4495 18.6507C38.4495 18.6463 38.4495 18.6463 38.4449 18.6419C38.399 18.5447 38.3531 18.4431 38.3072 18.3459C38.2659 18.262 38.2291 18.1781 38.1878 18.0942C38.1511 18.0235 38.1189 17.9528 38.0822 17.8821C38.0454 17.8115 38.0133 17.7408 37.9766 17.6701C37.7837 17.277 37.5862 16.8839 37.3842 16.4908C37.2602 16.2478 37.1546 15.9872 36.9847 15.7796C34.4086 14.1895 31.6809 13.443 29.9405 13.1029C29.9405 13.1029 29.936 13.1029 29.9314 13.1029C29.6926 13.0675 29.4538 13.0234 29.2104 13.0013C29.0313 12.9836 28.9165 13.1515 28.8201 13.2531C28.7558 13.3237 28.8063 13.3856 28.9027 13.4121C29.316 13.5358 29.7293 13.6594 30.1426 13.7875C30.4457 13.8803 30.7533 13.9642 31.0518 14.0658C31.3181 14.1586 31.5799 14.2734 31.8416 14.3794C32.108 14.4898 32.3789 14.5958 32.6452 14.7107C32.8748 14.8079 33.0998 14.9095 33.3203 15.0243C33.7335 15.2452 34.156 15.4483 34.5463 15.7045C35.1938 16.1286 35.4647 16.5747 35.4647 16.5747C35.4647 16.5747 31.2676 14.8785 24.6506 14.7769C19.0345 14.693 15.3977 15.625 14.0155 16.0623H14.0109C13.9466 16.0888 13.8823 16.1153 13.818 16.1374C13.795 16.1462 13.7675 16.1551 13.7445 16.1683C13.7216 16.1772 13.694 16.186 13.6711 16.1948C13.6573 16.1992 13.6481 16.2037 13.6343 16.2081C13.6297 16.2081 13.6205 16.2125 13.616 16.2125C13.6068 16.2125 13.5976 16.2169 13.5838 16.2169C13.5746 16.2169 13.5609 16.2169 13.5517 16.2213L13.3909 16.2788C13.4047 16.2743 13.4552 16.2522 13.5379 16.2213C13.5012 16.2213 13.469 16.2213 13.4277 16.2125C15.4895 14.9801 17.7579 14.2071 20.0218 13.2928C19.9254 13.2177 19.7692 13.094 19.6728 13.0145C19.6636 13.0145 19.659 13.0101 19.6544 13.0101C18.1207 13.3767 13.0741 14.6444 11.8985 15.8503C11.8572 15.9077 11.8205 15.9696 11.7837 16.0314C10.6082 18.7965 7.77951 25.9477 8.01371 30.219C11.32 33.6687 15.4436 33.8984 16.7156 33.8763C16.812 33.7571 16.9038 33.6334 17.0049 33.5185C17.4181 33.0636 17.836 32.6175 18.2493 32.1625C18.2952 32.1139 18.3228 32.0521 18.3687 31.977C16.4997 31.4514 14.8512 30.6209 13.5792 29.1987C13.5884 29.1766 13.6022 29.1545 13.6114 29.128C13.7216 29.1677 13.841 29.1942 13.9466 29.2472C14.3736 29.4504 14.7961 29.6669 15.2232 29.8656C15.5216 30.007 15.8247 30.1439 16.1324 30.2676C16.4446 30.3913 16.7661 30.4884 17.0829 30.5944C17.3125 30.6695 17.5421 30.7446 17.7763 30.8109C18.061 30.8948 18.3457 30.9699 18.6304 31.045C18.9105 31.1201 19.1907 31.1952 19.4708 31.2658C19.6131 31.3056 19.7555 31.3498 19.8978 31.3763C20.1642 31.4249 20.4305 31.4602 20.6968 31.4999C21.2249 31.5839 21.7576 31.6678 22.2857 31.7517C22.3086 31.7561 22.3316 31.7561 22.3591 31.7605C23.5898 31.8533 24.8205 31.8975 26.0511 31.8312C26.6527 31.8003 27.2496 31.7208 27.8466 31.6501C28.2185 31.606 28.5905 31.5485 28.9579 31.4734C29.2609 31.416 29.5548 31.3277 29.8533 31.2526C30.0278 31.2084 30.2023 31.1819 30.3768 31.1289C30.7396 31.0229 31.0931 30.8992 31.4559 30.7888C31.6993 30.7137 31.9472 30.6563 32.1814 30.5679C32.5442 30.4354 32.9024 30.2941 33.2606 30.1483C33.5636 30.0246 33.8667 29.901 34.1606 29.764C34.5096 29.6006 34.8494 29.4239 35.1938 29.2561C35.2489 29.2296 35.3132 29.2207 35.3729 29.2031C35.3867 29.2119 35.4004 29.2252 35.4142 29.2384C35.3913 29.2914 34.4591 30.2102 33.9677 30.5414C33.4718 30.8771 32.9208 31.1377 32.3743 31.3895C31.9289 31.5971 31.4559 31.7517 30.9921 31.9196C30.8589 31.9682 30.7166 31.9858 30.5788 32.0167C30.5742 32.0388 30.5696 32.0609 30.5651 32.083C30.7855 32.3215 31.0059 32.56 31.2263 32.7986C31.5386 33.1387 31.8554 33.4788 32.1723 33.8189C32.232 33.8807 32.3008 33.9426 32.3605 34H32.3973C34.1652 33.7438 39.3863 32.7411 40.9889 29.6889C40.9935 29.6845 40.9935 29.6757 40.9981 29.6713C41.0027 29.6448 40.9981 29.6094 40.9935 29.5741ZM19.2182 28.1297C17.5513 28.1297 16.2058 26.8311 16.2058 25.2321C16.2058 24.9009 16.2655 24.5828 16.3712 24.2825C16.463 23.9909 16.5962 23.7127 16.7982 23.4653C17.0783 23.1164 17.4135 22.8204 17.8222 22.6305C17.9462 22.5731 18.084 22.5289 18.2217 22.498C18.4559 22.4185 18.7085 22.3655 18.9656 22.3434C19.0207 22.339 19.0759 22.3345 19.131 22.3301C19.2963 22.3257 19.457 22.3345 19.6131 22.3566C19.6315 22.3566 19.6499 22.361 19.6682 22.3655C19.6958 22.3699 19.7233 22.3743 19.7509 22.3787C19.7692 22.3831 19.7922 22.3875 19.8106 22.3875C20.1091 22.445 20.3938 22.5466 20.6509 22.6791C20.6555 22.6835 20.6601 22.6835 20.6601 22.6835C21.2662 23.0015 21.7438 23.5139 22.0056 24.1323C22.001 24.1102 21.9918 24.0881 21.9872 24.066C21.9964 24.0925 22.0056 24.1146 22.0101 24.1411C22.1525 24.4768 22.226 24.8434 22.226 25.2233C22.2306 26.8311 20.8851 28.1297 19.2182 28.1297ZM29.5043 28.0502C27.842 28.0502 26.4919 26.7516 26.4919 25.1482C26.4919 23.5492 27.842 22.2462 29.5043 22.2462C31.1712 22.2462 32.5213 23.5448 32.5213 25.1482C32.5167 26.7516 31.1666 28.0502 29.5043 28.0502Z" fill="black"/>
<path d="M18.2217 22.4936C17.3538 22.7851 16.6696 23.4476 16.3712 24.2825C16.463 23.9909 16.5962 23.7127 16.7982 23.4653C17.0783 23.1164 17.4135 22.8204 17.8222 22.6305C17.9462 22.5731 18.084 22.5289 18.2217 22.4936Z" fill="black"/>
<path d="M19.613 22.3566C19.4845 22.339 19.3513 22.3301 19.2181 22.3301C19.1309 22.3301 19.0482 22.3345 18.9656 22.339C19.0207 22.3345 19.0758 22.3301 19.1309 22.3257C19.2962 22.3257 19.4569 22.3345 19.613 22.3566Z" fill="black"/>
<path d="M22.0148 24.15C22.0148 24.1456 22.0102 24.1411 22.0102 24.1411C22.0056 24.1191 21.9964 24.097 21.9918 24.0749C22.001 24.097 22.0056 24.1235 22.0148 24.15Z" fill="black"/>
</svg>
