<svg width="49" height="48" viewBox="0 0 49 48" fill="none" xmlns="http://www.w3.org/2000/svg">
<circle cx="24.6318" cy="24" r="24" fill="white"/>
<path d="M17.495 33.4284C22.5478 33.4284 26.6439 29.2071 26.6439 23.9999C26.6439 18.7926 22.5478 14.5713 17.495 14.5713C12.4422 14.5713 8.34615 18.7926 8.34615 23.9999C8.34615 29.2071 12.4422 33.4284 17.495 33.4284Z" fill="black"/>
<path d="M32.271 33.3911C34.8576 33.3911 36.9544 29.2033 36.9544 24.0373C36.9544 18.8714 34.8576 14.6836 32.271 14.6836C29.6845 14.6836 27.5877 18.8714 27.5877 24.0373C27.5877 29.2033 29.6845 33.3911 32.271 33.3911Z" fill="black"/>
<path d="M38.9875 32.6425C39.6692 32.6425 40.2218 28.7897 40.2218 24.0371C40.2218 19.2844 39.6692 15.4316 38.9875 15.4316C38.3057 15.4316 37.7531 19.2844 37.7531 24.0371C37.7531 28.7897 38.3057 32.6425 38.9875 32.6425Z" fill="black"/>
</svg>
