<svg width="48" height="48" viewBox="0 0 48 48" fill="none" xmlns="http://www.w3.org/2000/svg">
<circle cx="24" cy="24" r="24" fill="white"/>
<path d="M33.8712 14.5515C33.7793 15.0192 33.6875 15.4869 33.5994 15.9546C33.4923 16.515 30.0017 34.2149 29.9214 34.5133C29.7951 34.9769 29.3817 35.114 29.0258 34.9044C28.555 34.6262 28.1264 34.2673 27.6862 33.9327C27.0738 33.465 26.4691 32.9812 25.8529 32.5135C25.0454 31.8925 24.234 31.2837 23.4264 30.6628C23.0743 30.3927 22.5882 30.3645 22.2514 30.6467C21.7347 31.0781 21.2333 31.5337 20.7205 31.9732C20.1885 32.4288 19.6565 32.8884 19.113 33.3319C19.0097 33.4166 18.8451 33.4609 18.7111 33.4489C18.382 33.4287 18.16 33.1666 18.0873 32.8239C18.0337 32.5739 16.1851 26.385 16.0205 25.8205C16.0052 25.7722 15.9555 25.7157 15.9095 25.6956C15.5804 25.5544 10.4173 23.5304 10.2221 23.3893C10.0423 23.2563 10.0078 23.1797 10.0002 22.8813C9.99633 22.72 10.0576 22.4499 10.6585 22.1717C10.9455 22.0709 32.612 13.2371 33.0559 13.0476C33.343 12.9226 33.7563 13.0556 33.9477 13.3096C34.0893 13.4991 33.9018 14.3862 33.8712 14.5515ZM17.2453 25.5867C17.3103 25.8568 17.3754 26.1713 17.4558 26.4777C17.5629 26.885 17.6931 27.2841 17.8002 27.6913C17.9074 28.0905 17.9954 28.4977 18.1026 28.8969C18.2136 29.3081 18.3437 29.7153 18.4585 30.1266C18.5045 30.2879 18.6116 30.3846 18.7494 30.3846C18.891 30.3806 18.9944 30.2556 19.0173 30.1024C19.0633 29.8081 19.09 29.5097 19.1245 29.2114C19.1321 29.1388 19.1321 29.0622 19.1436 28.9896C19.1972 28.6267 19.2661 28.2679 19.3044 27.905C19.3465 27.4776 19.4651 27.0866 19.7445 26.7801C20.0775 26.4132 20.4411 26.0786 20.7932 25.7318C21.9108 24.6271 23.0245 23.5224 24.1459 22.4257C24.831 21.7564 25.5238 21.0952 26.2089 20.4259C26.7791 19.8695 27.3456 19.3091 27.912 18.7486C28.2144 18.4503 28.5206 18.1519 28.8153 17.8455C28.8574 17.8011 28.8842 17.6842 28.8574 17.6358C28.8306 17.5834 28.7272 17.5391 28.6698 17.5512C28.5588 17.5713 28.444 17.6237 28.3445 17.6883C27.7474 18.0753 27.1542 18.4745 26.5572 18.8615C25.6845 19.426 24.8042 19.9824 23.9316 20.5509C23.3384 20.9379 22.7566 21.3371 22.1634 21.7201C21.5319 22.1273 20.8927 22.5225 20.2612 22.9297C19.4575 23.4498 18.6499 23.9659 17.8538 24.5021C17.5055 24.736 17.2721 25.0787 17.2453 25.5867Z" fill="black"/>
</svg>
