<svg width="49" height="48" viewBox="0 0 49 48" fill="none" xmlns="http://www.w3.org/2000/svg">
<circle cx="24.6318" cy="24" r="24" fill="white"/>
<path d="M11.7747 33.3007C14.5904 33.4663 17.1301 32.7927 19.3827 31.0481C17.9361 30.9266 16.6994 30.3745 15.7057 29.3255C15.1756 28.7624 14.8002 28.122 14.5462 27.349C15.3192 27.4594 16.048 27.4705 16.8319 27.2607C14.215 26.4436 12.8237 24.7321 12.647 21.9715C13.4089 22.347 14.1377 22.5789 14.9769 22.612C12.6249 20.6355 12.1391 18.3056 13.3979 15.512C16.2909 18.9239 19.9127 20.768 24.3516 21.0992C24.3184 20.8232 24.2964 20.6023 24.2743 20.3705C24.0645 18.1952 25.2349 16.0861 27.1783 15.1255C29.188 14.1427 31.5731 14.4851 33.1852 16.0089C33.3729 16.1855 33.5386 16.2518 33.7815 16.1634C34.5875 15.8653 35.3936 15.5782 36.1997 15.2801C36.3764 15.2138 36.542 15.1034 36.796 14.9709C36.3543 16.2297 35.6255 17.1462 34.5765 17.8308C34.5875 17.8639 34.6096 17.897 34.6207 17.9302C35.5372 17.6762 36.4647 17.4333 37.4033 17.1793C37.3591 17.2566 37.3149 17.3449 37.2597 17.4112C36.6524 18.2393 35.9457 18.9902 35.1176 19.5975C34.9298 19.73 34.8746 19.8736 34.8746 20.1054C34.8415 25.3283 32.8208 29.6016 28.658 32.7927C26.5158 34.427 24.0534 35.2551 21.3702 35.5091C18.0907 35.8183 15.021 35.1778 12.1722 33.5326C12.0287 33.4663 11.9072 33.378 11.7747 33.3007Z" fill="black"/>
</svg>
